<mxfile host="app.diagrams.net" agent="Mozilla/5.0 (Windows NT 10.0; Win64; x64) AppleWebKit/537.36 (KHTML, like Gecko) Chrome/131.0.0.0 Safari/537.36" version="24.9.0">
  <diagram name="Сторінка-1" id="w0yTYOtt2moxCjItlIrl">
    <mxGraphModel dx="1680" dy="743" grid="1" gridSize="10" guides="1" tooltips="1" connect="1" arrows="1" fold="1" page="1" pageScale="1" pageWidth="827" pageHeight="1169" math="0" shadow="0">
      <root>
        <mxCell id="0" />
        <mxCell id="1" parent="0" />
        <mxCell id="exWICe295R4SNLmVUB-j-8" value="" style="edgeStyle=orthogonalEdgeStyle;rounded=0;orthogonalLoop=1;jettySize=auto;html=1;" edge="1" parent="1" source="exWICe295R4SNLmVUB-j-1" target="exWICe295R4SNLmVUB-j-3">
          <mxGeometry relative="1" as="geometry" />
        </mxCell>
        <mxCell id="exWICe295R4SNLmVUB-j-1" value="Start" style="ellipse;whiteSpace=wrap;html=1;" vertex="1" parent="1">
          <mxGeometry x="150" width="100" height="50" as="geometry" />
        </mxCell>
        <mxCell id="exWICe295R4SNLmVUB-j-2" value="End" style="ellipse;whiteSpace=wrap;html=1;" vertex="1" parent="1">
          <mxGeometry x="160" y="600" width="100" height="50" as="geometry" />
        </mxCell>
        <mxCell id="exWICe295R4SNLmVUB-j-24" value="" style="edgeStyle=orthogonalEdgeStyle;rounded=0;orthogonalLoop=1;jettySize=auto;html=1;" edge="1" parent="1" source="exWICe295R4SNLmVUB-j-3" target="exWICe295R4SNLmVUB-j-22">
          <mxGeometry relative="1" as="geometry" />
        </mxCell>
        <mxCell id="exWICe295R4SNLmVUB-j-3" value="Initialize x, h, y, a, b, c" style="rounded=1;whiteSpace=wrap;html=1;" vertex="1" parent="1">
          <mxGeometry x="130" y="80" width="140" height="40" as="geometry" />
        </mxCell>
        <mxCell id="exWICe295R4SNLmVUB-j-10" value="" style="edgeStyle=orthogonalEdgeStyle;rounded=0;orthogonalLoop=1;jettySize=auto;html=1;" edge="1" parent="1" source="exWICe295R4SNLmVUB-j-4">
          <mxGeometry relative="1" as="geometry">
            <mxPoint x="120" y="340" as="targetPoint" />
          </mxGeometry>
        </mxCell>
        <mxCell id="exWICe295R4SNLmVUB-j-16" value="" style="edgeStyle=orthogonalEdgeStyle;rounded=0;orthogonalLoop=1;jettySize=auto;html=1;" edge="1" parent="1" source="exWICe295R4SNLmVUB-j-4" target="exWICe295R4SNLmVUB-j-13">
          <mxGeometry relative="1" as="geometry" />
        </mxCell>
        <mxCell id="exWICe295R4SNLmVUB-j-19" value="YES" style="edgeLabel;html=1;align=center;verticalAlign=middle;resizable=0;points=[];" vertex="1" connectable="0" parent="exWICe295R4SNLmVUB-j-16">
          <mxGeometry x="-0.1799" relative="1" as="geometry">
            <mxPoint as="offset" />
          </mxGeometry>
        </mxCell>
        <mxCell id="exWICe295R4SNLmVUB-j-4" value="x &amp;lt; 2" style="rhombus;whiteSpace=wrap;html=1;" vertex="1" parent="1">
          <mxGeometry x="70" y="250" width="100" height="50" as="geometry" />
        </mxCell>
        <mxCell id="exWICe295R4SNLmVUB-j-11" value="" style="edgeStyle=orthogonalEdgeStyle;rounded=0;orthogonalLoop=1;jettySize=auto;html=1;" edge="1" parent="1" target="exWICe295R4SNLmVUB-j-6">
          <mxGeometry relative="1" as="geometry">
            <mxPoint x="120" y="380" as="sourcePoint" />
          </mxGeometry>
        </mxCell>
        <mxCell id="exWICe295R4SNLmVUB-j-17" value="" style="edgeStyle=orthogonalEdgeStyle;rounded=0;orthogonalLoop=1;jettySize=auto;html=1;" edge="1" parent="1" target="exWICe295R4SNLmVUB-j-14">
          <mxGeometry relative="1" as="geometry">
            <mxPoint x="180" y="360" as="sourcePoint" />
          </mxGeometry>
        </mxCell>
        <mxCell id="exWICe295R4SNLmVUB-j-20" value="YES" style="edgeLabel;html=1;align=center;verticalAlign=middle;resizable=0;points=[];" vertex="1" connectable="0" parent="exWICe295R4SNLmVUB-j-17">
          <mxGeometry x="-0.0559" relative="1" as="geometry">
            <mxPoint as="offset" />
          </mxGeometry>
        </mxCell>
        <mxCell id="exWICe295R4SNLmVUB-j-5" value="x &amp;gt;=2 &amp;amp;&amp;amp; x&amp;lt;=4" style="rhombus;whiteSpace=wrap;html=1;" vertex="1" parent="1">
          <mxGeometry x="60" y="340" width="120" height="40" as="geometry" />
        </mxCell>
        <mxCell id="exWICe295R4SNLmVUB-j-18" value="" style="edgeStyle=orthogonalEdgeStyle;rounded=0;orthogonalLoop=1;jettySize=auto;html=1;" edge="1" parent="1" source="exWICe295R4SNLmVUB-j-6" target="exWICe295R4SNLmVUB-j-15">
          <mxGeometry relative="1" as="geometry" />
        </mxCell>
        <mxCell id="exWICe295R4SNLmVUB-j-21" value="YES" style="edgeLabel;html=1;align=center;verticalAlign=middle;resizable=0;points=[];" vertex="1" connectable="0" parent="exWICe295R4SNLmVUB-j-18">
          <mxGeometry x="-0.0799" y="-3" relative="1" as="geometry">
            <mxPoint as="offset" />
          </mxGeometry>
        </mxCell>
        <mxCell id="exWICe295R4SNLmVUB-j-30" value="" style="edgeStyle=orthogonalEdgeStyle;rounded=0;orthogonalLoop=1;jettySize=auto;html=1;" edge="1" parent="1" source="exWICe295R4SNLmVUB-j-6" target="exWICe295R4SNLmVUB-j-29">
          <mxGeometry relative="1" as="geometry" />
        </mxCell>
        <mxCell id="exWICe295R4SNLmVUB-j-6" value="else" style="rhombus;whiteSpace=wrap;html=1;" vertex="1" parent="1">
          <mxGeometry x="70" y="420" width="100" height="50" as="geometry" />
        </mxCell>
        <mxCell id="exWICe295R4SNLmVUB-j-13" value="y = pow(a, b - x) + c" style="rounded=0;whiteSpace=wrap;html=1;" vertex="1" parent="1">
          <mxGeometry x="230" y="252.5" width="120" height="45" as="geometry" />
        </mxCell>
        <mxCell id="exWICe295R4SNLmVUB-j-14" value="y = pow(b, c - x) + a" style="rounded=0;whiteSpace=wrap;html=1;" vertex="1" parent="1">
          <mxGeometry x="230" y="337.5" width="120" height="45" as="geometry" />
        </mxCell>
        <mxCell id="exWICe295R4SNLmVUB-j-15" value="y = pow(c, a - x) + b" style="rounded=0;whiteSpace=wrap;html=1;" vertex="1" parent="1">
          <mxGeometry x="230" y="422.5" width="120" height="45" as="geometry" />
        </mxCell>
        <mxCell id="exWICe295R4SNLmVUB-j-27" style="edgeStyle=orthogonalEdgeStyle;rounded=0;orthogonalLoop=1;jettySize=auto;html=1;exitX=0;exitY=0.5;exitDx=0;exitDy=0;" edge="1" parent="1" source="exWICe295R4SNLmVUB-j-22" target="exWICe295R4SNLmVUB-j-4">
          <mxGeometry relative="1" as="geometry" />
        </mxCell>
        <mxCell id="exWICe295R4SNLmVUB-j-22" value="Do :&lt;div&gt;x &amp;lt;= 5&lt;/div&gt;" style="rhombus;whiteSpace=wrap;html=1;" vertex="1" parent="1">
          <mxGeometry x="145" y="160" width="110" height="50" as="geometry" />
        </mxCell>
        <mxCell id="exWICe295R4SNLmVUB-j-28" style="edgeStyle=orthogonalEdgeStyle;rounded=0;orthogonalLoop=1;jettySize=auto;html=1;exitX=1;exitY=0.5;exitDx=0;exitDy=0;entryX=1;entryY=0.5;entryDx=0;entryDy=0;" edge="1" parent="1" source="exWICe295R4SNLmVUB-j-25" target="exWICe295R4SNLmVUB-j-22">
          <mxGeometry relative="1" as="geometry">
            <Array as="points">
              <mxPoint x="380" y="530" />
              <mxPoint x="380" y="185" />
            </Array>
          </mxGeometry>
        </mxCell>
        <mxCell id="exWICe295R4SNLmVUB-j-25" value="x += h" style="rounded=0;whiteSpace=wrap;html=1;" vertex="1" parent="1">
          <mxGeometry x="240" y="512.5" width="100" height="40" as="geometry" />
        </mxCell>
        <mxCell id="exWICe295R4SNLmVUB-j-31" value="" style="edgeStyle=orthogonalEdgeStyle;rounded=0;orthogonalLoop=1;jettySize=auto;html=1;" edge="1" parent="1" source="exWICe295R4SNLmVUB-j-29" target="exWICe295R4SNLmVUB-j-25">
          <mxGeometry relative="1" as="geometry" />
        </mxCell>
        <mxCell id="exWICe295R4SNLmVUB-j-32" style="edgeStyle=orthogonalEdgeStyle;rounded=0;orthogonalLoop=1;jettySize=auto;html=1;exitX=0.5;exitY=1;exitDx=0;exitDy=0;entryX=0.5;entryY=0;entryDx=0;entryDy=0;" edge="1" parent="1" source="exWICe295R4SNLmVUB-j-29" target="exWICe295R4SNLmVUB-j-2">
          <mxGeometry relative="1" as="geometry" />
        </mxCell>
        <mxCell id="exWICe295R4SNLmVUB-j-29" value="Output : x, y" style="shape=parallelogram;perimeter=parallelogramPerimeter;whiteSpace=wrap;html=1;fixedSize=1;" vertex="1" parent="1">
          <mxGeometry x="80" y="515" width="120" height="35" as="geometry" />
        </mxCell>
      </root>
    </mxGraphModel>
  </diagram>
</mxfile>
